<svg xmlns="http://www.w3.org/2000/svg" xmlns:xlink="http://www.w3.org/1999/xlink" width="500" zoomAndPan="magnify" viewBox="0 0 375 374.999991" height="500" preserveAspectRatio="xMidYMid meet" version="1.0"><defs><g/><clipPath id="9f1314dd78"><path d="M 37.5 37.5 L 337.5 37.5 L 337.5 337.5 L 37.5 337.5 Z M 37.5 37.5 " clip-rule="nonzero"/></clipPath><clipPath id="d0f7ec375f"><path d="M 187.5 37.5 C 104.65625 37.5 37.5 104.65625 37.5 187.5 C 37.5 270.34375 104.65625 337.5 187.5 337.5 C 270.34375 337.5 337.5 270.34375 337.5 187.5 C 337.5 104.65625 270.34375 37.5 187.5 37.5 Z M 187.5 37.5 " clip-rule="nonzero"/></clipPath><clipPath id="6fcf8ac302"><path d="M 0.5 0.5 L 300.5 0.5 L 300.5 300.5 L 0.5 300.5 Z M 0.5 0.5 " clip-rule="nonzero"/></clipPath><clipPath id="9c4763f414"><path d="M 150.5 0.5 C 67.65625 0.5 0.5 67.65625 0.5 150.5 C 0.5 233.34375 67.65625 300.5 150.5 300.5 C 233.34375 300.5 300.5 233.34375 300.5 150.5 C 300.5 67.65625 233.34375 0.5 150.5 0.5 Z M 150.5 0.5 " clip-rule="nonzero"/></clipPath><clipPath id="e359403806"><rect x="0" width="301" y="0" height="301"/></clipPath><clipPath id="1521d102f8"><path d="M 42.667969 40.921875 L 331.589844 40.921875 L 331.589844 334.355469 L 42.667969 334.355469 Z M 42.667969 40.921875 " clip-rule="nonzero"/></clipPath><clipPath id="8b5fca8a82"><path d="M 187.128906 40.921875 C 107.347656 40.921875 42.667969 106.546875 42.667969 187.5 C 42.667969 268.453125 107.347656 334.078125 187.128906 334.078125 C 266.910156 334.078125 331.589844 268.453125 331.589844 187.5 C 331.589844 106.546875 266.910156 40.921875 187.128906 40.921875 Z M 187.128906 40.921875 " clip-rule="nonzero"/></clipPath><clipPath id="81a97378b4"><path d="M 0.667969 0.921875 L 289.589844 0.921875 L 289.589844 294.078125 L 0.667969 294.078125 Z M 0.667969 0.921875 " clip-rule="nonzero"/></clipPath><clipPath id="9112b1ba5d"><path d="M 145.128906 0.921875 C 65.347656 0.921875 0.667969 66.546875 0.667969 147.5 C 0.667969 228.453125 65.347656 294.078125 145.128906 294.078125 C 224.910156 294.078125 289.589844 228.453125 289.589844 147.5 C 289.589844 66.546875 224.910156 0.921875 145.128906 0.921875 Z M 145.128906 0.921875 " clip-rule="nonzero"/></clipPath><clipPath id="52a78f5622"><rect x="0" width="290" y="0" height="295"/></clipPath><clipPath id="69495eb341"><path d="M 179.8125 180.183594 L 194.445312 180.183594 L 194.445312 194.816406 L 179.8125 194.816406 Z M 179.8125 180.183594 " clip-rule="nonzero"/></clipPath><clipPath id="199b883d17"><path d="M 187.128906 180.183594 C 183.085938 180.183594 179.8125 183.457031 179.8125 187.5 C 179.8125 191.542969 183.085938 194.816406 187.128906 194.816406 C 191.171875 194.816406 194.445312 191.542969 194.445312 187.5 C 194.445312 183.457031 191.171875 180.183594 187.128906 180.183594 Z M 187.128906 180.183594 " clip-rule="nonzero"/></clipPath><clipPath id="03e27d8682"><path d="M 0.8125 0.183594 L 15.445312 0.183594 L 15.445312 14.816406 L 0.8125 14.816406 Z M 0.8125 0.183594 " clip-rule="nonzero"/></clipPath><clipPath id="bc113cb222"><path d="M 8.128906 0.183594 C 4.085938 0.183594 0.8125 3.457031 0.8125 7.5 C 0.8125 11.542969 4.085938 14.816406 8.128906 14.816406 C 12.171875 14.816406 15.445312 11.542969 15.445312 7.5 C 15.445312 3.457031 12.171875 0.183594 8.128906 0.183594 Z M 8.128906 0.183594 " clip-rule="nonzero"/></clipPath><clipPath id="38fdacec57"><rect x="0" width="16" y="0" height="15"/></clipPath><clipPath id="eba0476e7f"><path d="M 182.917969 78.488281 L 191.339844 78.488281 L 191.339844 187.375 L 182.917969 187.375 Z M 182.917969 78.488281 " clip-rule="nonzero"/></clipPath><clipPath id="f5b59f9b21"><path d="M 0.917969 0.488281 L 9.339844 0.488281 L 9.339844 109.375 L 0.917969 109.375 Z M 0.917969 0.488281 " clip-rule="nonzero"/></clipPath><clipPath id="8fe2eb8099"><rect x="0" width="10" y="0" height="110"/></clipPath><clipPath id="6f1d8fbf42"><path d="M 39.226562 183.632812 L 182.035156 183.632812 L 182.035156 191.367188 L 39.226562 191.367188 Z M 39.226562 183.632812 " clip-rule="nonzero"/></clipPath><clipPath id="b593f3ab8f"><path d="M 0.226562 0.632812 L 143.035156 0.632812 L 143.035156 8.367188 L 0.226562 8.367188 Z M 0.226562 0.632812 " clip-rule="nonzero"/></clipPath><clipPath id="fe8d3b937b"><rect x="0" width="144" y="0" height="9"/></clipPath><clipPath id="7d4584c94d"><rect x="0" width="71" y="0" height="110"/></clipPath><clipPath id="1421187601"><rect x="0" width="70" y="0" height="109"/></clipPath></defs><rect x="-37.5" width="450" fill="#ffffff" y="-37.499999" height="449.999989" fill-opacity="1"/><rect x="-37.5" width="450" fill="#ffffff" y="-37.499999" height="449.999989" fill-opacity="1"/><g clip-path="url(#9f1314dd78)"><g clip-path="url(#d0f7ec375f)"><g transform="matrix(1, 0, 0, 1, 37, 37)"><g clip-path="url(#e359403806)"><g clip-path="url(#6fcf8ac302)"><g clip-path="url(#9c4763f414)"><path fill="#000000" d="M 0.5 0.5 L 300.5 0.5 L 300.5 300.5 L 0.5 300.5 Z M 0.5 0.5 " fill-opacity="1" fill-rule="nonzero"/></g></g></g></g></g></g><g clip-path="url(#1521d102f8)"><g clip-path="url(#8b5fca8a82)"><g transform="matrix(1, 0, 0, 1, 42, 40)"><g clip-path="url(#52a78f5622)"><g clip-path="url(#81a97378b4)"><g clip-path="url(#9112b1ba5d)"><path fill="#ffffff" d="M 0.667969 0.921875 L 289.589844 0.921875 L 289.589844 294.355469 L 0.667969 294.355469 Z M 0.667969 0.921875 " fill-opacity="1" fill-rule="nonzero"/></g></g></g></g></g></g><g clip-path="url(#69495eb341)"><g clip-path="url(#199b883d17)"><g transform="matrix(1, 0, 0, 1, 179, 180)"><g clip-path="url(#38fdacec57)"><g clip-path="url(#03e27d8682)"><g clip-path="url(#bc113cb222)"><path fill="#000000" d="M 0.8125 0.183594 L 15.445312 0.183594 L 15.445312 14.816406 L 0.8125 14.816406 Z M 0.8125 0.183594 " fill-opacity="1" fill-rule="nonzero"/></g></g></g></g></g></g><g clip-path="url(#eba0476e7f)"><g transform="matrix(1, 0, 0, 1, 182, 78)"><g clip-path="url(#8fe2eb8099)"><g clip-path="url(#f5b59f9b21)"><path fill="#000000" d="M 0.917969 0.488281 L 9.339844 0.488281 L 9.339844 109.375 L 0.917969 109.375 Z M 0.917969 0.488281 " fill-opacity="1" fill-rule="nonzero"/></g></g></g></g><g clip-path="url(#6f1d8fbf42)"><g transform="matrix(1, 0, 0, 1, 39, 183)"><g clip-path="url(#fe8d3b937b)"><g clip-path="url(#b593f3ab8f)"><path fill="#000000" d="M 0.226562 0.632812 L 143.027344 0.632812 L 143.027344 8.367188 L 0.226562 8.367188 Z M 0.226562 0.632812 " fill-opacity="1" fill-rule="nonzero"/></g></g></g></g><g fill="#000000" fill-opacity="1"><g transform="translate(234.415712, 169.46457)"><g><path d="M 6.515625 0.21875 C 5.816406 0.21875 5.128906 0.109375 4.453125 -0.109375 C 3.773438 -0.328125 3.15625 -0.660156 2.59375 -1.109375 C 2.039062 -1.566406 1.597656 -2.144531 1.265625 -2.84375 C 0.941406 -3.539062 0.78125 -4.363281 0.78125 -5.3125 C 0.78125 -6.457031 1.050781 -7.460938 1.59375 -8.328125 C 2.132812 -9.191406 2.84375 -9.867188 3.71875 -10.359375 C 4.59375 -10.847656 5.523438 -11.09375 6.515625 -11.09375 C 7.203125 -11.09375 7.878906 -10.988281 8.546875 -10.78125 C 9.222656 -10.570312 9.835938 -10.238281 10.390625 -9.78125 C 10.953125 -9.332031 11.398438 -8.753906 11.734375 -8.046875 C 12.066406 -7.347656 12.234375 -6.507812 12.234375 -5.53125 C 12.234375 -4.601562 12.0625 -3.78125 11.71875 -3.0625 C 11.375 -2.34375 10.914062 -1.738281 10.34375 -1.25 C 9.78125 -0.769531 9.160156 -0.40625 8.484375 -0.15625 C 7.816406 0.09375 7.160156 0.21875 6.515625 0.21875 Z M 2.46875 -6.5625 C 2.46875 -5.863281 2.578125 -5.144531 2.796875 -4.40625 C 3.015625 -3.675781 3.328125 -2.992188 3.734375 -2.359375 C 4.148438 -1.734375 4.644531 -1.222656 5.21875 -0.828125 C 5.789062 -0.429688 6.445312 -0.234375 7.1875 -0.234375 C 7.96875 -0.234375 8.601562 -0.421875 9.09375 -0.796875 C 9.59375 -1.171875 9.960938 -1.664062 10.203125 -2.28125 C 10.453125 -2.894531 10.578125 -3.550781 10.578125 -4.25 C 10.578125 -4.945312 10.457031 -5.675781 10.21875 -6.4375 C 9.988281 -7.207031 9.65625 -7.921875 9.21875 -8.578125 C 8.789062 -9.234375 8.273438 -9.757812 7.671875 -10.15625 C 7.078125 -10.550781 6.425781 -10.726562 5.71875 -10.6875 C 4.96875 -10.65625 4.351562 -10.445312 3.875 -10.0625 C 3.394531 -9.6875 3.039062 -9.191406 2.8125 -8.578125 C 2.582031 -7.960938 2.46875 -7.289062 2.46875 -6.5625 Z M 2.46875 -6.5625 "/></g></g></g><g fill="#000000" fill-opacity="1"><g transform="translate(247.593847, 169.46457)"><g><path d="M 0.703125 0 L 0.703125 -0.28125 C 1.035156 -0.382812 1.265625 -0.601562 1.390625 -0.9375 C 1.515625 -1.269531 1.578125 -1.882812 1.578125 -2.78125 L 1.578125 -7.8125 C 1.578125 -8.320312 1.539062 -8.703125 1.46875 -8.953125 C 1.40625 -9.210938 1.3125 -9.398438 1.1875 -9.515625 C 1.0625 -9.640625 0.898438 -9.742188 0.703125 -9.828125 L 0.703125 -10.0625 L 3.09375 -11.125 L 3.28125 -10.96875 L 3.28125 -8.234375 C 3.457031 -8.648438 3.6875 -9.039062 3.96875 -9.40625 C 4.257812 -9.769531 4.5625 -10.070312 4.875 -10.3125 C 5.21875 -10.5625 5.585938 -10.753906 5.984375 -10.890625 C 6.390625 -11.023438 6.851562 -11.09375 7.375 -11.09375 C 7.8125 -11.09375 8.15625 -11.039062 8.40625 -10.9375 C 8.664062 -10.84375 8.796875 -10.695312 8.796875 -10.5 C 8.796875 -10.269531 8.679688 -10.003906 8.453125 -9.703125 C 8.234375 -9.410156 7.925781 -9.265625 7.53125 -9.265625 C 7.238281 -9.265625 6.867188 -9.316406 6.421875 -9.421875 C 5.972656 -9.535156 5.429688 -9.6875 4.796875 -9.875 C 4.585938 -9.726562 4.367188 -9.503906 4.140625 -9.203125 C 3.921875 -8.898438 3.734375 -8.566406 3.578125 -8.203125 C 3.421875 -7.835938 3.332031 -7.484375 3.3125 -7.140625 L 3.28125 -7.140625 L 3.28125 -2.78125 C 3.28125 -1.882812 3.34375 -1.269531 3.46875 -0.9375 C 3.59375 -0.601562 3.820312 -0.382812 4.15625 -0.28125 L 4.15625 0 Z M 0.703125 0 "/></g></g></g><g fill="#000000" fill-opacity="1"><g transform="translate(256.787892, 169.46457)"><g><path d="M 0.828125 0 L 0.828125 -0.28125 C 1.160156 -0.382812 1.390625 -0.601562 1.515625 -0.9375 C 1.640625 -1.269531 1.703125 -1.882812 1.703125 -2.78125 L 1.703125 -14.375 C 1.703125 -14.882812 1.671875 -15.269531 1.609375 -15.53125 C 1.546875 -15.789062 1.453125 -15.976562 1.328125 -16.09375 C 1.203125 -16.207031 1.035156 -16.304688 0.828125 -16.390625 L 0.828125 -16.640625 L 3.21875 -17.6875 L 3.421875 -17.53125 L 3.421875 -2.78125 C 3.421875 -1.882812 3.476562 -1.269531 3.59375 -0.9375 C 3.71875 -0.601562 3.953125 -0.382812 4.296875 -0.28125 L 4.296875 0 Z M 0.828125 0 "/></g></g></g><g fill="#000000" fill-opacity="1"><g transform="translate(261.975956, 169.46457)"><g><path d="M 6.515625 0.21875 C 5.816406 0.21875 5.128906 0.109375 4.453125 -0.109375 C 3.773438 -0.328125 3.15625 -0.660156 2.59375 -1.109375 C 2.039062 -1.566406 1.597656 -2.144531 1.265625 -2.84375 C 0.941406 -3.539062 0.78125 -4.363281 0.78125 -5.3125 C 0.78125 -6.457031 1.050781 -7.460938 1.59375 -8.328125 C 2.132812 -9.191406 2.84375 -9.867188 3.71875 -10.359375 C 4.59375 -10.847656 5.523438 -11.09375 6.515625 -11.09375 C 7.203125 -11.09375 7.878906 -10.988281 8.546875 -10.78125 C 9.222656 -10.570312 9.835938 -10.238281 10.390625 -9.78125 C 10.953125 -9.332031 11.398438 -8.753906 11.734375 -8.046875 C 12.066406 -7.347656 12.234375 -6.507812 12.234375 -5.53125 C 12.234375 -4.601562 12.0625 -3.78125 11.71875 -3.0625 C 11.375 -2.34375 10.914062 -1.738281 10.34375 -1.25 C 9.78125 -0.769531 9.160156 -0.40625 8.484375 -0.15625 C 7.816406 0.09375 7.160156 0.21875 6.515625 0.21875 Z M 2.46875 -6.5625 C 2.46875 -5.863281 2.578125 -5.144531 2.796875 -4.40625 C 3.015625 -3.675781 3.328125 -2.992188 3.734375 -2.359375 C 4.148438 -1.734375 4.644531 -1.222656 5.21875 -0.828125 C 5.789062 -0.429688 6.445312 -0.234375 7.1875 -0.234375 C 7.96875 -0.234375 8.601562 -0.421875 9.09375 -0.796875 C 9.59375 -1.171875 9.960938 -1.664062 10.203125 -2.28125 C 10.453125 -2.894531 10.578125 -3.550781 10.578125 -4.25 C 10.578125 -4.945312 10.457031 -5.675781 10.21875 -6.4375 C 9.988281 -7.207031 9.65625 -7.921875 9.21875 -8.578125 C 8.789062 -9.234375 8.273438 -9.757812 7.671875 -10.15625 C 7.078125 -10.550781 6.425781 -10.726562 5.71875 -10.6875 C 4.96875 -10.65625 4.351562 -10.445312 3.875 -10.0625 C 3.394531 -9.6875 3.039062 -9.191406 2.8125 -8.578125 C 2.582031 -7.960938 2.46875 -7.289062 2.46875 -6.5625 Z M 2.46875 -6.5625 "/></g></g></g><g fill="#000000" fill-opacity="1"><g transform="translate(275.154091, 169.46457)"><g><path d="M 3.890625 6.0625 C 3.335938 6.0625 2.785156 5.972656 2.234375 5.796875 C 1.691406 5.617188 1.238281 5.332031 0.875 4.9375 C 0.507812 4.550781 0.328125 4.03125 0.328125 3.375 C 0.328125 2.6875 0.582031 2.050781 1.09375 1.46875 C 1.613281 0.894531 2.320312 0.335938 3.21875 -0.203125 C 2.71875 -0.316406 2.328125 -0.5 2.046875 -0.75 C 1.765625 -1.007812 1.625 -1.375 1.625 -1.84375 C 1.625 -2.25 1.78125 -2.597656 2.09375 -2.890625 C 2.40625 -3.191406 2.78125 -3.484375 3.21875 -3.765625 C 2.675781 -4.054688 2.21875 -4.457031 1.84375 -4.96875 C 1.476562 -5.488281 1.296875 -6.15625 1.296875 -6.96875 C 1.296875 -7.738281 1.5 -8.429688 1.90625 -9.046875 C 2.3125 -9.671875 2.847656 -10.164062 3.515625 -10.53125 C 4.179688 -10.90625 4.882812 -11.09375 5.625 -11.09375 C 5.882812 -11.09375 6.15625 -11.070312 6.4375 -11.03125 C 6.71875 -11 6.976562 -10.945312 7.21875 -10.875 C 7.34375 -11.019531 7.460938 -11.160156 7.578125 -11.296875 C 7.703125 -11.441406 7.835938 -11.566406 7.984375 -11.671875 C 8.328125 -11.960938 8.695312 -12.195312 9.09375 -12.375 C 9.5 -12.5625 9.960938 -12.65625 10.484375 -12.65625 C 10.816406 -12.65625 11.085938 -12.609375 11.296875 -12.515625 C 11.515625 -12.421875 11.625 -12.289062 11.625 -12.125 C 11.625 -11.9375 11.515625 -11.703125 11.296875 -11.421875 C 11.078125 -11.148438 10.769531 -11.015625 10.375 -11.015625 C 10.09375 -11.015625 9.785156 -11.0625 9.453125 -11.15625 C 9.117188 -11.25 8.703125 -11.367188 8.203125 -11.515625 C 7.972656 -11.335938 7.742188 -11.085938 7.515625 -10.765625 C 8.179688 -10.535156 8.75 -10.140625 9.21875 -9.578125 C 9.695312 -9.023438 9.9375 -8.273438 9.9375 -7.328125 C 9.9375 -6.703125 9.796875 -6.132812 9.515625 -5.625 C 9.242188 -5.125 8.890625 -4.691406 8.453125 -4.328125 C 8.015625 -3.960938 7.546875 -3.6875 7.046875 -3.5 C 6.546875 -3.3125 6.070312 -3.21875 5.625 -3.21875 C 5.289062 -3.21875 4.9375 -3.25 4.5625 -3.3125 C 4.1875 -3.382812 3.832031 -3.492188 3.5 -3.640625 C 3.269531 -3.472656 3.082031 -3.320312 2.9375 -3.1875 C 2.789062 -3.050781 2.71875 -2.878906 2.71875 -2.671875 C 2.726562 -2.378906 2.921875 -2.144531 3.296875 -1.96875 C 3.679688 -1.789062 4.289062 -1.679688 5.125 -1.640625 L 7.875 -1.46875 C 8.625 -1.425781 9.253906 -1.34375 9.765625 -1.21875 C 10.285156 -1.101562 10.6875 -0.898438 10.96875 -0.609375 C 11.25 -0.316406 11.390625 0.109375 11.390625 0.671875 C 11.390625 1.304688 11.171875 1.941406 10.734375 2.578125 C 10.304688 3.210938 9.726562 3.789062 9 4.3125 C 8.269531 4.832031 7.460938 5.253906 6.578125 5.578125 C 5.691406 5.898438 4.796875 6.0625 3.890625 6.0625 Z M 1.796875 2.5625 C 1.796875 3.351562 2.097656 3.96875 2.703125 4.40625 C 3.304688 4.851562 4.117188 5.078125 5.140625 5.078125 C 5.835938 5.078125 6.507812 4.976562 7.15625 4.78125 C 7.800781 4.582031 8.378906 4.316406 8.890625 3.984375 C 9.398438 3.648438 9.800781 3.273438 10.09375 2.859375 C 10.382812 2.453125 10.53125 2.03125 10.53125 1.59375 C 10.53125 1.082031 10.3125 0.726562 9.875 0.53125 C 9.4375 0.332031 8.765625 0.207031 7.859375 0.15625 L 4.796875 0 C 4.359375 -0.03125 3.941406 -0.0703125 3.546875 -0.125 C 2.921875 0.289062 2.472656 0.722656 2.203125 1.171875 C 1.929688 1.628906 1.796875 2.09375 1.796875 2.5625 Z M 2.890625 -7.921875 C 2.890625 -7.441406 2.957031 -6.945312 3.09375 -6.4375 C 3.238281 -5.9375 3.441406 -5.46875 3.703125 -5.03125 C 3.972656 -4.59375 4.304688 -4.238281 4.703125 -3.96875 C 5.097656 -3.695312 5.546875 -3.5625 6.046875 -3.5625 C 6.859375 -3.5625 7.445312 -3.835938 7.8125 -4.390625 C 8.175781 -4.953125 8.359375 -5.601562 8.359375 -6.34375 C 8.359375 -6.84375 8.28125 -7.351562 8.125 -7.875 C 7.976562 -8.40625 7.757812 -8.890625 7.46875 -9.328125 C 7.1875 -9.773438 6.84375 -10.132812 6.4375 -10.40625 C 6.039062 -10.675781 5.59375 -10.796875 5.09375 -10.765625 C 4.320312 -10.734375 3.757812 -10.441406 3.40625 -9.890625 C 3.0625 -9.347656 2.890625 -8.691406 2.890625 -7.921875 Z M 2.890625 -7.921875 "/></g></g></g><g fill="#000000" fill-opacity="1"><g transform="translate(286.165011, 169.46457)"><g><path d="M 5.96875 0.21875 C 5.375 0.21875 4.769531 0.109375 4.15625 -0.109375 C 3.539062 -0.328125 2.976562 -0.65625 2.46875 -1.09375 C 1.957031 -1.539062 1.546875 -2.097656 1.234375 -2.765625 C 0.929688 -3.441406 0.78125 -4.234375 0.78125 -5.140625 C 0.78125 -6.335938 1.046875 -7.378906 1.578125 -8.265625 C 2.117188 -9.160156 2.828125 -9.851562 3.703125 -10.34375 C 4.578125 -10.84375 5.523438 -11.09375 6.546875 -11.09375 C 7.460938 -11.09375 8.242188 -10.914062 8.890625 -10.5625 C 9.546875 -10.207031 10.050781 -9.738281 10.40625 -9.15625 C 10.769531 -8.570312 10.957031 -7.925781 10.96875 -7.21875 L 2.40625 -7.21875 C 2.363281 -6.90625 2.34375 -6.570312 2.34375 -6.21875 C 2.34375 -5.226562 2.535156 -4.347656 2.921875 -3.578125 C 3.304688 -2.816406 3.851562 -2.222656 4.5625 -1.796875 C 5.269531 -1.367188 6.097656 -1.15625 7.046875 -1.15625 C 7.890625 -1.15625 8.625 -1.332031 9.25 -1.6875 C 9.882812 -2.039062 10.453125 -2.5 10.953125 -3.0625 L 11.140625 -2.875 C 10.773438 -2.351562 10.335938 -1.851562 9.828125 -1.375 C 9.316406 -0.90625 8.742188 -0.519531 8.109375 -0.21875 C 7.472656 0.0703125 6.757812 0.21875 5.96875 0.21875 Z M 2.46875 -7.515625 L 9.21875 -7.515625 C 9.144531 -8.003906 8.960938 -8.492188 8.671875 -8.984375 C 8.390625 -9.472656 8.007812 -9.878906 7.53125 -10.203125 C 7.0625 -10.535156 6.492188 -10.703125 5.828125 -10.703125 C 4.890625 -10.710938 4.140625 -10.410156 3.578125 -9.796875 C 3.015625 -9.191406 2.644531 -8.429688 2.46875 -7.515625 Z M 2.46875 -7.515625 "/></g></g></g><g fill="#000000" fill-opacity="1"><g transform="translate(297.920256, 169.46457)"><g><path d="M 0.703125 0 L 0.703125 -0.28125 C 1.035156 -0.382812 1.265625 -0.601562 1.390625 -0.9375 C 1.515625 -1.269531 1.578125 -1.882812 1.578125 -2.78125 L 1.578125 -7.8125 C 1.578125 -8.320312 1.539062 -8.703125 1.46875 -8.953125 C 1.40625 -9.210938 1.3125 -9.398438 1.1875 -9.515625 C 1.0625 -9.640625 0.898438 -9.742188 0.703125 -9.828125 L 0.703125 -10.0625 L 3.09375 -11.125 L 3.28125 -10.96875 L 3.28125 -8.234375 C 3.457031 -8.648438 3.6875 -9.039062 3.96875 -9.40625 C 4.257812 -9.769531 4.5625 -10.070312 4.875 -10.3125 C 5.21875 -10.5625 5.585938 -10.753906 5.984375 -10.890625 C 6.390625 -11.023438 6.851562 -11.09375 7.375 -11.09375 C 7.8125 -11.09375 8.15625 -11.039062 8.40625 -10.9375 C 8.664062 -10.84375 8.796875 -10.695312 8.796875 -10.5 C 8.796875 -10.269531 8.679688 -10.003906 8.453125 -9.703125 C 8.234375 -9.410156 7.925781 -9.265625 7.53125 -9.265625 C 7.238281 -9.265625 6.867188 -9.316406 6.421875 -9.421875 C 5.972656 -9.535156 5.429688 -9.6875 4.796875 -9.875 C 4.585938 -9.726562 4.367188 -9.503906 4.140625 -9.203125 C 3.921875 -8.898438 3.734375 -8.566406 3.578125 -8.203125 C 3.421875 -7.835938 3.332031 -7.484375 3.3125 -7.140625 L 3.28125 -7.140625 L 3.28125 -2.78125 C 3.28125 -1.882812 3.34375 -1.269531 3.46875 -0.9375 C 3.59375 -0.601562 3.820312 -0.382812 4.15625 -0.28125 L 4.15625 0 Z M 0.703125 0 "/></g></g></g><g fill="#000000" fill-opacity="1"><g transform="translate(307.114301, 169.46457)"><g><path d="M 0.703125 0 L 0.703125 -0.28125 C 1.035156 -0.382812 1.265625 -0.601562 1.390625 -0.9375 C 1.515625 -1.269531 1.578125 -1.882812 1.578125 -2.78125 L 1.578125 -7.8125 C 1.578125 -8.320312 1.546875 -8.703125 1.484375 -8.953125 C 1.429688 -9.210938 1.335938 -9.398438 1.203125 -9.515625 C 1.066406 -9.640625 0.898438 -9.742188 0.703125 -9.828125 L 0.703125 -10.0625 L 3.109375 -11.125 L 3.28125 -10.96875 L 3.28125 -2.78125 C 3.28125 -1.882812 3.34375 -1.269531 3.46875 -0.9375 C 3.601562 -0.601562 3.832031 -0.382812 4.15625 -0.28125 L 4.15625 0 Z M 1.09375 -13.65625 C 1.09375 -14.007812 1.207031 -14.300781 1.4375 -14.53125 C 1.675781 -14.769531 1.960938 -14.890625 2.296875 -14.890625 C 2.648438 -14.890625 2.9375 -14.769531 3.15625 -14.53125 C 3.382812 -14.300781 3.5 -14.007812 3.5 -13.65625 C 3.5 -13.332031 3.378906 -13.050781 3.140625 -12.8125 C 2.910156 -12.570312 2.628906 -12.453125 2.296875 -12.453125 C 1.960938 -12.453125 1.675781 -12.570312 1.4375 -12.8125 C 1.207031 -13.050781 1.09375 -13.332031 1.09375 -13.65625 Z M 1.09375 -13.65625 "/></g></g></g><g fill="#000000" fill-opacity="1"><g transform="translate(312.039678, 169.46457)"><g><path d="M 5.96875 0.21875 C 5.375 0.21875 4.769531 0.109375 4.15625 -0.109375 C 3.539062 -0.328125 2.976562 -0.65625 2.46875 -1.09375 C 1.957031 -1.539062 1.546875 -2.097656 1.234375 -2.765625 C 0.929688 -3.441406 0.78125 -4.234375 0.78125 -5.140625 C 0.78125 -6.335938 1.046875 -7.378906 1.578125 -8.265625 C 2.117188 -9.160156 2.828125 -9.851562 3.703125 -10.34375 C 4.578125 -10.84375 5.523438 -11.09375 6.546875 -11.09375 C 7.460938 -11.09375 8.242188 -10.914062 8.890625 -10.5625 C 9.546875 -10.207031 10.050781 -9.738281 10.40625 -9.15625 C 10.769531 -8.570312 10.957031 -7.925781 10.96875 -7.21875 L 2.40625 -7.21875 C 2.363281 -6.90625 2.34375 -6.570312 2.34375 -6.21875 C 2.34375 -5.226562 2.535156 -4.347656 2.921875 -3.578125 C 3.304688 -2.816406 3.851562 -2.222656 4.5625 -1.796875 C 5.269531 -1.367188 6.097656 -1.15625 7.046875 -1.15625 C 7.890625 -1.15625 8.625 -1.332031 9.25 -1.6875 C 9.882812 -2.039062 10.453125 -2.5 10.953125 -3.0625 L 11.140625 -2.875 C 10.773438 -2.351562 10.335938 -1.851562 9.828125 -1.375 C 9.316406 -0.90625 8.742188 -0.519531 8.109375 -0.21875 C 7.472656 0.0703125 6.757812 0.21875 5.96875 0.21875 Z M 2.46875 -7.515625 L 9.21875 -7.515625 C 9.144531 -8.003906 8.960938 -8.492188 8.671875 -8.984375 C 8.390625 -9.472656 8.007812 -9.878906 7.53125 -10.203125 C 7.0625 -10.535156 6.492188 -10.703125 5.828125 -10.703125 C 4.890625 -10.710938 4.140625 -10.410156 3.578125 -9.796875 C 3.015625 -9.191406 2.644531 -8.429688 2.46875 -7.515625 Z M 2.46875 -7.515625 "/></g></g></g><g fill="#000000" fill-opacity="1"><g transform="translate(107.354448, 220.607623)"><g><path d="M 10.859375 0 C 10.335938 0 10.078125 -0.257812 10.078125 -0.78125 L 10.078125 -5.4375 C 9.816406 -4.382812 9.410156 -3.425781 8.859375 -2.5625 C 8.304688 -1.695312 7.660156 -1.007812 6.921875 -0.5 C 6.191406 0.0078125 5.394531 0.265625 4.53125 0.265625 C 3.894531 0.265625 3.300781 0.132812 2.75 -0.125 C 2.195312 -0.382812 1.75 -0.765625 1.40625 -1.265625 C 1.070312 -1.765625 0.90625 -2.390625 0.90625 -3.140625 C 0.90625 -4.035156 1.171875 -4.765625 1.703125 -5.328125 C 2.242188 -5.898438 2.957031 -6.367188 3.84375 -6.734375 C 4.738281 -7.097656 5.691406 -7.414062 6.703125 -7.6875 L 10.078125 -8.59375 C 10.003906 -9.851562 9.65625 -10.78125 9.03125 -11.375 C 8.414062 -11.976562 7.554688 -12.28125 6.453125 -12.28125 C 5.671875 -12.28125 4.910156 -12.09375 4.171875 -11.71875 C 3.441406 -11.351562 2.75 -10.769531 2.09375 -9.96875 L 1.859375 -10.1875 C 2.609375 -11.09375 3.453125 -11.8125 4.390625 -12.34375 C 5.328125 -12.875 6.359375 -13.140625 7.484375 -13.140625 C 9.054688 -13.140625 10.210938 -12.726562 10.953125 -11.90625 C 11.703125 -11.082031 12.078125 -9.9375 12.078125 -8.46875 L 12.078125 -3.296875 C 12.078125 -2.234375 12.148438 -1.503906 12.296875 -1.109375 C 12.441406 -0.710938 12.710938 -0.457031 13.109375 -0.34375 L 13.109375 0 Z M 2.84375 -3.859375 C 2.84375 -3.015625 3.097656 -2.367188 3.609375 -1.921875 C 4.117188 -1.484375 4.742188 -1.265625 5.484375 -1.265625 C 6.179688 -1.265625 6.8125 -1.457031 7.375 -1.84375 C 7.9375 -2.238281 8.414062 -2.742188 8.8125 -3.359375 C 9.207031 -3.984375 9.515625 -4.660156 9.734375 -5.390625 C 9.960938 -6.117188 10.078125 -6.816406 10.078125 -7.484375 L 10.078125 -8.265625 L 6.8125 -7.390625 C 6.175781 -7.210938 5.550781 -6.976562 4.9375 -6.6875 C 4.320312 -6.40625 3.816406 -6.039062 3.421875 -5.59375 C 3.035156 -5.144531 2.84375 -4.566406 2.84375 -3.859375 Z M 2.84375 -3.859375 "/></g></g></g><g fill="#000000" fill-opacity="1"><g transform="translate(121.086819, 220.607623)"><g><path d="M 0.828125 0 L 0.828125 -0.34375 C 1.222656 -0.457031 1.492188 -0.710938 1.640625 -1.109375 C 1.785156 -1.503906 1.859375 -2.234375 1.859375 -3.296875 L 1.859375 -9.25 C 1.859375 -9.851562 1.816406 -10.304688 1.734375 -10.609375 C 1.660156 -10.910156 1.550781 -11.128906 1.40625 -11.265625 C 1.257812 -11.398438 1.066406 -11.519531 0.828125 -11.625 L 0.828125 -11.921875 L 3.65625 -13.15625 L 3.890625 -12.984375 L 3.890625 -9.734375 C 4.097656 -10.234375 4.367188 -10.695312 4.703125 -11.125 C 5.035156 -11.5625 5.394531 -11.921875 5.78125 -12.203125 C 6.175781 -12.492188 6.609375 -12.722656 7.078125 -12.890625 C 7.554688 -13.054688 8.109375 -13.140625 8.734375 -13.140625 C 9.242188 -13.140625 9.648438 -13.078125 9.953125 -12.953125 C 10.265625 -12.828125 10.421875 -12.65625 10.421875 -12.4375 C 10.421875 -12.15625 10.285156 -11.835938 10.015625 -11.484375 C 9.742188 -11.128906 9.375 -10.953125 8.90625 -10.953125 C 8.5625 -10.953125 8.125 -11.015625 7.59375 -11.140625 C 7.070312 -11.273438 6.429688 -11.457031 5.671875 -11.6875 C 5.429688 -11.507812 5.175781 -11.242188 4.90625 -10.890625 C 4.632812 -10.535156 4.410156 -10.140625 4.234375 -9.703125 C 4.054688 -9.273438 3.945312 -8.859375 3.90625 -8.453125 L 3.890625 -8.453125 L 3.890625 -3.296875 C 3.890625 -2.234375 3.960938 -1.503906 4.109375 -1.109375 C 4.253906 -0.710938 4.523438 -0.457031 4.921875 -0.34375 L 4.921875 0 Z M 0.828125 0 "/></g></g></g><g fill="#000000" fill-opacity="1"><g transform="translate(130.362496, 220.607623)"><g><path d="M 10.859375 0 C 10.335938 0 10.078125 -0.257812 10.078125 -0.78125 L 10.078125 -5.4375 C 9.816406 -4.382812 9.410156 -3.425781 8.859375 -2.5625 C 8.304688 -1.695312 7.660156 -1.007812 6.921875 -0.5 C 6.191406 0.0078125 5.394531 0.265625 4.53125 0.265625 C 3.894531 0.265625 3.300781 0.132812 2.75 -0.125 C 2.195312 -0.382812 1.75 -0.765625 1.40625 -1.265625 C 1.070312 -1.765625 0.90625 -2.390625 0.90625 -3.140625 C 0.90625 -4.035156 1.171875 -4.765625 1.703125 -5.328125 C 2.242188 -5.898438 2.957031 -6.367188 3.84375 -6.734375 C 4.738281 -7.097656 5.691406 -7.414062 6.703125 -7.6875 L 10.078125 -8.59375 C 10.003906 -9.851562 9.65625 -10.78125 9.03125 -11.375 C 8.414062 -11.976562 7.554688 -12.28125 6.453125 -12.28125 C 5.671875 -12.28125 4.910156 -12.09375 4.171875 -11.71875 C 3.441406 -11.351562 2.75 -10.769531 2.09375 -9.96875 L 1.859375 -10.1875 C 2.609375 -11.09375 3.453125 -11.8125 4.390625 -12.34375 C 5.328125 -12.875 6.359375 -13.140625 7.484375 -13.140625 C 9.054688 -13.140625 10.210938 -12.726562 10.953125 -11.90625 C 11.703125 -11.082031 12.078125 -9.9375 12.078125 -8.46875 L 12.078125 -3.296875 C 12.078125 -2.234375 12.148438 -1.503906 12.296875 -1.109375 C 12.441406 -0.710938 12.710938 -0.457031 13.109375 -0.34375 L 13.109375 0 Z M 2.84375 -3.859375 C 2.84375 -3.015625 3.097656 -2.367188 3.609375 -1.921875 C 4.117188 -1.484375 4.742188 -1.265625 5.484375 -1.265625 C 6.179688 -1.265625 6.8125 -1.457031 7.375 -1.84375 C 7.9375 -2.238281 8.414062 -2.742188 8.8125 -3.359375 C 9.207031 -3.984375 9.515625 -4.660156 9.734375 -5.390625 C 9.960938 -6.117188 10.078125 -6.816406 10.078125 -7.484375 L 10.078125 -8.265625 L 6.8125 -7.390625 C 6.175781 -7.210938 5.550781 -6.976562 4.9375 -6.6875 C 4.320312 -6.40625 3.816406 -6.039062 3.421875 -5.59375 C 3.035156 -5.144531 2.84375 -4.566406 2.84375 -3.859375 Z M 2.84375 -3.859375 "/></g></g></g><g fill="#000000" fill-opacity="1"><g transform="translate(144.094867, 220.607623)"><g><path d="M 4.890625 0.265625 C 4.078125 0.265625 3.4375 -0.015625 2.96875 -0.578125 C 2.507812 -1.140625 2.28125 -2.097656 2.28125 -3.453125 L 2.28125 -12.59375 L 0.625 -12.59375 L 0.625 -12.953125 L 3.9375 -16.140625 L 4.296875 -16.140625 L 4.296875 -12.953125 L 8.234375 -12.953125 L 8.109375 -12.59375 L 4.296875 -12.59375 L 4.296875 -3.453125 C 4.296875 -2.566406 4.460938 -1.9375 4.796875 -1.5625 C 5.140625 -1.195312 5.585938 -1.015625 6.140625 -1.015625 C 6.503906 -1.015625 6.898438 -1.113281 7.328125 -1.3125 C 7.765625 -1.507812 8.195312 -1.859375 8.625 -2.359375 L 8.859375 -2.125 C 8.304688 -1.488281 7.695312 -0.929688 7.03125 -0.453125 C 6.363281 0.0234375 5.648438 0.265625 4.890625 0.265625 Z M 4.890625 0.265625 "/></g></g></g><g fill="#000000" fill-opacity="1"><g transform="translate(153.00796, 220.607623)"><g><path d="M 0.78125 5 C 0.28125 5.019531 -0.132812 4.953125 -0.46875 4.796875 C -0.8125 4.648438 -0.984375 4.476562 -0.984375 4.28125 C -0.984375 4.101562 -0.910156 3.90625 -0.765625 3.6875 C -0.628906 3.476562 -0.441406 3.285156 -0.203125 3.109375 C 0.0351562 2.929688 0.3125 2.84375 0.625 2.84375 C 0.96875 2.84375 1.445312 2.914062 2.0625 3.0625 C 2.6875 3.21875 3.296875 3.347656 3.890625 3.453125 C 4.335938 3.046875 4.757812 2.546875 5.15625 1.953125 C 5.550781 1.359375 5.914062 0.722656 6.25 0.046875 L 2 -9.921875 C 1.601562 -10.890625 1.238281 -11.550781 0.90625 -11.90625 C 0.582031 -12.257812 0.28125 -12.492188 0 -12.609375 L 0 -12.953125 L 3.90625 -12.953125 L 3.90625 -12.609375 C 3.53125 -12.492188 3.375 -12.257812 3.4375 -11.90625 C 3.507812 -11.550781 3.753906 -10.890625 4.171875 -9.921875 L 7.359375 -2.515625 L 10.546875 -9.921875 C 10.910156 -10.765625 11.070312 -11.398438 11.03125 -11.828125 C 11 -12.265625 10.757812 -12.523438 10.3125 -12.609375 L 10.3125 -12.953125 L 13.1875 -12.953125 L 13.1875 -12.609375 C 12.820312 -12.492188 12.460938 -12.257812 12.109375 -11.90625 C 11.753906 -11.550781 11.363281 -10.890625 10.9375 -9.921875 L 6.921875 -0.640625 C 6.367188 0.617188 5.816406 1.625 5.265625 2.375 C 4.710938 3.132812 4.171875 3.703125 3.640625 4.078125 C 3.109375 4.453125 2.601562 4.695312 2.125 4.8125 C 1.644531 4.9375 1.195312 5 0.78125 5 Z M 0.78125 5 "/></g></g></g><g fill="#000000" fill-opacity="1"><g transform="translate(166.066675, 220.607623)"><g><path d="M 0.953125 0 L 0.953125 -0.34375 C 1.347656 -0.457031 1.617188 -0.710938 1.765625 -1.109375 C 1.921875 -1.503906 2 -2.234375 2 -3.296875 L 2 -17.015625 C 2 -17.617188 1.957031 -18.070312 1.875 -18.375 C 1.800781 -18.675781 1.691406 -18.894531 1.546875 -19.03125 C 1.398438 -19.175781 1.203125 -19.300781 0.953125 -19.40625 L 0.953125 -19.6875 L 3.78125 -20.9375 L 4.015625 -20.75 L 4.015625 -5.625 L 8.515625 -9.953125 C 9.367188 -10.773438 9.875 -11.421875 10.03125 -11.890625 C 10.1875 -12.359375 10.113281 -12.648438 9.8125 -12.765625 L 9.8125 -12.953125 L 12.875 -12.953125 L 12.875 -12.609375 C 12.5 -12.492188 12.066406 -12.320312 11.578125 -12.09375 C 11.097656 -11.875 10.476562 -11.398438 9.71875 -10.671875 L 7.84375 -8.859375 L 10.875 -3.390625 C 11.375 -2.492188 11.847656 -1.765625 12.296875 -1.203125 C 12.753906 -0.640625 13.273438 -0.34375 13.859375 -0.3125 L 13.859375 0 L 12.171875 0 C 11.535156 0 10.96875 -0.226562 10.46875 -0.6875 C 9.976562 -1.144531 9.414062 -1.953125 8.78125 -3.109375 L 6.421875 -7.484375 L 4.015625 -5.15625 L 4.015625 -3.296875 C 4.015625 -2.234375 4.085938 -1.503906 4.234375 -1.109375 C 4.378906 -0.710938 4.648438 -0.457031 5.046875 -0.34375 L 5.046875 0 Z M 0.953125 0 "/></g></g></g><g transform="matrix(1, 0, 0, 1, 42, 136)"><g clip-path="url(#7d4584c94d)"><g fill="#000000" fill-opacity="1"><g transform="translate(0.846862, 87.031516)"><g><path d="M 59.765625 0 L 51.390625 0 L 51.390625 -30.953125 L 17.375 -30.953125 L 17.375 0 L 9.015625 0 L 9.015625 -66.359375 L 17.375 -66.359375 L 17.375 -38.296875 L 51.390625 -38.296875 L 51.390625 -66.359375 L 59.765625 -66.359375 Z M 59.765625 0 "/></g></g></g></g></g><g transform="matrix(1, 0, 0, 1, 174, 88)"><g clip-path="url(#1421187601)"><g fill="#000000" fill-opacity="1"><g transform="translate(0.0874882, 85.331217)"><g><path d="M 59.203125 0 L 50.921875 0 L 50.921875 -30.65625 L 17.21875 -30.65625 L 17.21875 0 L 8.9375 0 L 8.9375 -65.75 L 17.21875 -65.75 L 17.21875 -37.9375 L 50.921875 -37.9375 L 50.921875 -65.75 L 59.203125 -65.75 Z M 59.203125 0 "/></g></g></g></g></g></svg>