<svg xmlns="http://www.w3.org/2000/svg" xmlns:xlink="http://www.w3.org/1999/xlink" width="1920" zoomAndPan="magnify" viewBox="0 0 1440 809.999993" height="1080" preserveAspectRatio="xMidYMid meet" version="1.0"><defs><g/><clipPath id="9d6f0d0699"><path d="M 0.359375 0.238281 L 641.640625 0.238281 L 641.640625 641.761719 L 0.359375 641.761719 Z M 0.359375 0.238281 " clip-rule="nonzero"/></clipPath><clipPath id="1ff85922b3"><path d="M 51 51 L 591 51 L 591 591 L 51 591 Z M 51 51 " clip-rule="nonzero"/></clipPath><clipPath id="220a81d137"><path d="M 321 51 C 171.882812 51 51 171.882812 51 321 C 51 470.117188 171.882812 591 321 591 C 470.117188 591 591 470.117188 591 321 C 591 171.882812 470.117188 51 321 51 Z M 321 51 " clip-rule="nonzero"/></clipPath><clipPath id="c370ed08f3"><rect x="0" width="642" y="0" height="642"/></clipPath><clipPath id="efecf9efa3"><path d="M 0.160156 0.828125 L 26.503906 0.828125 L 26.503906 27.171875 L 0.160156 27.171875 Z M 0.160156 0.828125 " clip-rule="nonzero"/></clipPath><clipPath id="b68b101e0e"><path d="M 13.332031 0.828125 C 6.058594 0.828125 0.160156 6.726562 0.160156 14 C 0.160156 21.273438 6.058594 27.171875 13.332031 27.171875 C 20.605469 27.171875 26.503906 21.273438 26.503906 14 C 26.503906 6.726562 20.605469 0.828125 13.332031 0.828125 Z M 13.332031 0.828125 " clip-rule="nonzero"/></clipPath><clipPath id="5ca7a564dc"><path d="M 0.160156 0.828125 L 26.503906 0.828125 L 26.503906 27.171875 L 0.160156 27.171875 Z M 0.160156 0.828125 " clip-rule="nonzero"/></clipPath><clipPath id="005d8d931f"><path d="M 13.332031 0.828125 C 6.058594 0.828125 0.160156 6.726562 0.160156 14 C 0.160156 21.273438 6.058594 27.171875 13.332031 27.171875 C 20.605469 27.171875 26.503906 21.273438 26.503906 14 C 26.503906 6.726562 20.605469 0.828125 13.332031 0.828125 Z M 13.332031 0.828125 " clip-rule="nonzero"/></clipPath><clipPath id="b3f1128ae3"><rect x="0" width="27" y="0" height="28"/></clipPath><clipPath id="090ed27465"><rect x="0" width="27" y="0" height="28"/></clipPath><clipPath id="433ffdc8ce"><path d="M 0.75 0.78125 L 15.914062 0.78125 L 15.914062 196.777344 L 0.75 196.777344 Z M 0.75 0.78125 " clip-rule="nonzero"/></clipPath><clipPath id="eb8205dc51"><path d="M 0.75 0.78125 L 15.914062 0.78125 L 15.914062 196.777344 L 0.75 196.777344 Z M 0.75 0.78125 " clip-rule="nonzero"/></clipPath><clipPath id="1e6d26ac11"><rect x="0" width="16" y="0" height="197"/></clipPath><clipPath id="fb83f30a15"><rect x="0" width="16" y="0" height="197"/></clipPath><clipPath id="9c0c63da93"><path d="M 1.109375 1.039062 L 258.164062 1.039062 L 258.164062 14.960938 L 1.109375 14.960938 Z M 1.109375 1.039062 " clip-rule="nonzero"/></clipPath><clipPath id="1d6dd6d2cd"><path d="M 0.109375 0.0390625 L 257.164062 0.0390625 L 257.164062 13.960938 L 0.109375 13.960938 Z M 0.109375 0.0390625 " clip-rule="nonzero"/></clipPath><clipPath id="ed7ea279fc"><rect x="0" width="258" y="0" height="14"/></clipPath><clipPath id="d62eec71f2"><rect x="0" width="259" y="0" height="16"/></clipPath><clipPath id="c2bd47ffa9"><path d="M 42 0.078125 L 49 0.078125 L 49 33 L 42 33 Z M 42 0.078125 " clip-rule="nonzero"/></clipPath><clipPath id="dc9ab73c74"><rect x="0" width="163" y="0" height="45"/></clipPath><clipPath id="addfb8f2ac"><path d="M 108 0.71875 L 132 0.71875 L 132 39 L 108 39 Z M 108 0.71875 " clip-rule="nonzero"/></clipPath><clipPath id="4a50c1dd27"><rect x="0" width="134" y="0" height="51"/></clipPath><clipPath id="2409e4870b"><rect x="0" width="126" y="0" height="195"/></clipPath><clipPath id="83748803f0"><rect x="0" width="126" y="0" height="194"/></clipPath><clipPath id="4147d289d2"><rect x="0" width="642" y="0" height="642"/></clipPath></defs><g transform="matrix(1, 0, 0, 1, 399, 84)"><g clip-path="url(#4147d289d2)"><g clip-path="url(#9d6f0d0699)"><g transform="matrix(1, 0, 0, 1, 0, 0.000000000000042633)"><g clip-path="url(#c370ed08f3)"><g clip-path="url(#1ff85922b3)"><g clip-path="url(#220a81d137)"><path stroke-linecap="butt" transform="matrix(1.35, 0, 0, 1.35, 50.999926, 51.000013)" fill="none" stroke-linejoin="miter" d="M 200.000065 -0.00000978395 C 89.542883 -0.00000978395 0.0000548272 89.542819 0.0000548272 200 C 0.0000548272 310.457182 89.542883 400.00001 200.000065 400.00001 C 310.457246 400.00001 400.000075 310.457182 400.000075 200 C 400.000075 89.542819 310.457246 -0.00000978395 200.000065 -0.00000978395 Z M 200.000065 -0.00000978395 " stroke="#000000" stroke-width="16" stroke-opacity="1" stroke-miterlimit="4"/></g></g></g></g></g><g transform="matrix(1, 0, 0, 1, 307, 307)"><g clip-path="url(#090ed27465)"><g clip-path="url(#efecf9efa3)"><g clip-path="url(#b68b101e0e)"><g transform="matrix(1, 0, 0, 1, 0.000000000000113687, 0.000000000000056843)"><g clip-path="url(#b3f1128ae3)"><g clip-path="url(#5ca7a564dc)"><g clip-path="url(#005d8d931f)"><path fill="#000000" d="M 0.160156 0.828125 L 26.503906 0.828125 L 26.503906 27.171875 L 0.160156 27.171875 Z M 0.160156 0.828125 " fill-opacity="1" fill-rule="nonzero"/></g></g></g></g></g></g></g></g><g transform="matrix(1, 0, 0, 1, 312, 124)"><g clip-path="url(#fb83f30a15)"><g clip-path="url(#433ffdc8ce)"><g transform="matrix(1, 0, 0, 1, 0.000000000000113687, 0.000000000000028422)"><g clip-path="url(#1e6d26ac11)"><g clip-path="url(#eb8205dc51)"><path fill="#000000" d="M 0.75 0.78125 L 15.914062 0.78125 L 15.914062 196.777344 L 0.75 196.777344 Z M 0.75 0.78125 " fill-opacity="1" fill-rule="nonzero"/></g></g></g></g></g></g><g transform="matrix(1, 0, 0, 1, 53, 313)"><g clip-path="url(#d62eec71f2)"><g clip-path="url(#9c0c63da93)"><g transform="matrix(1, 0, 0, 1, 1, 1)"><g clip-path="url(#ed7ea279fc)"><g clip-path="url(#1d6dd6d2cd)"><path fill="#000000" d="M 0.109375 0.0390625 L 257.148438 0.0390625 L 257.148438 13.960938 L 0.109375 13.960938 Z M 0.109375 0.0390625 " fill-opacity="1" fill-rule="nonzero"/></g></g></g></g></g></g><g transform="matrix(1, 0, 0, 1, 405, 256)"><g clip-path="url(#dc9ab73c74)"><g fill="#000000" fill-opacity="1"><g transform="translate(0.448208, 32.536251)"><g><path d="M 11.75 0.390625 C 10.488281 0.390625 9.242188 0.195312 8.015625 -0.1875 C 6.796875 -0.582031 5.6875 -1.1875 4.6875 -2 C 3.6875 -2.820312 2.890625 -3.863281 2.296875 -5.125 C 1.710938 -6.382812 1.421875 -7.867188 1.421875 -9.578125 C 1.421875 -11.628906 1.90625 -13.4375 2.875 -15 C 3.84375 -16.5625 5.113281 -17.78125 6.6875 -18.65625 C 8.269531 -19.539062 9.957031 -19.984375 11.75 -19.984375 C 12.976562 -19.984375 14.195312 -19.789062 15.40625 -19.40625 C 16.613281 -19.03125 17.71875 -18.429688 18.71875 -17.609375 C 19.71875 -16.796875 20.519531 -15.757812 21.125 -14.5 C 21.726562 -13.238281 22.03125 -11.726562 22.03125 -9.96875 C 22.03125 -8.289062 21.71875 -6.804688 21.09375 -5.515625 C 20.476562 -4.234375 19.660156 -3.148438 18.640625 -2.265625 C 17.617188 -1.390625 16.503906 -0.726562 15.296875 -0.28125 C 14.085938 0.164062 12.90625 0.390625 11.75 0.390625 Z M 4.453125 -11.828125 C 4.453125 -10.566406 4.648438 -9.269531 5.046875 -7.9375 C 5.441406 -6.613281 6.003906 -5.382812 6.734375 -4.25 C 7.472656 -3.125 8.359375 -2.207031 9.390625 -1.5 C 10.429688 -0.789062 11.609375 -0.4375 12.921875 -0.4375 C 14.335938 -0.4375 15.492188 -0.769531 16.390625 -1.4375 C 17.285156 -2.101562 17.945312 -2.988281 18.375 -4.09375 C 18.8125 -5.195312 19.03125 -6.378906 19.03125 -7.640625 C 19.03125 -8.898438 18.816406 -10.21875 18.390625 -11.59375 C 17.972656 -12.976562 17.378906 -14.257812 16.609375 -15.4375 C 15.835938 -16.625 14.910156 -17.570312 13.828125 -18.28125 C 12.753906 -18.988281 11.570312 -19.304688 10.28125 -19.234375 C 8.945312 -19.179688 7.84375 -18.8125 6.96875 -18.125 C 6.101562 -17.445312 5.46875 -16.554688 5.0625 -15.453125 C 4.65625 -14.347656 4.453125 -13.140625 4.453125 -11.828125 Z M 4.453125 -11.828125 "/></g></g></g><g fill="#000000" fill-opacity="1"><g transform="translate(24.16885, 32.536251)"><g><path d="M 1.265625 0 L 1.265625 -0.515625 C 1.867188 -0.691406 2.28125 -1.082031 2.5 -1.6875 C 2.726562 -2.289062 2.84375 -3.394531 2.84375 -5 L 2.84375 -14.0625 C 2.84375 -14.988281 2.78125 -15.679688 2.65625 -16.140625 C 2.539062 -16.597656 2.367188 -16.929688 2.140625 -17.140625 C 1.921875 -17.347656 1.628906 -17.53125 1.265625 -17.6875 L 1.265625 -18.125 L 5.5625 -20.015625 L 5.90625 -19.75 L 5.90625 -14.8125 C 6.226562 -15.570312 6.644531 -16.28125 7.15625 -16.9375 C 7.664062 -17.601562 8.207031 -18.144531 8.78125 -18.5625 C 9.382812 -19.007812 10.046875 -19.359375 10.765625 -19.609375 C 11.492188 -19.859375 12.332031 -19.984375 13.28125 -19.984375 C 14.070312 -19.984375 14.695312 -19.890625 15.15625 -19.703125 C 15.613281 -19.515625 15.84375 -19.253906 15.84375 -18.921875 C 15.84375 -18.492188 15.640625 -18.007812 15.234375 -17.46875 C 14.828125 -16.9375 14.269531 -16.671875 13.5625 -16.671875 C 13.03125 -16.671875 12.363281 -16.769531 11.5625 -16.96875 C 10.757812 -17.164062 9.78125 -17.429688 8.625 -17.765625 C 8.257812 -17.503906 7.875 -17.101562 7.46875 -16.5625 C 7.0625 -16.03125 6.71875 -15.4375 6.4375 -14.78125 C 6.164062 -14.125 6.003906 -13.476562 5.953125 -12.84375 L 5.90625 -12.84375 L 5.90625 -5 C 5.90625 -3.394531 6.015625 -2.289062 6.234375 -1.6875 C 6.460938 -1.082031 6.878906 -0.691406 7.484375 -0.515625 L 7.484375 0 Z M 1.265625 0 "/></g></g></g><g clip-path="url(#c2bd47ffa9)"><g fill="#000000" fill-opacity="1"><g transform="translate(40.718132, 32.536251)"><g><path d="M 1.5 0 L 1.5 -0.515625 C 2.101562 -0.691406 2.515625 -1.082031 2.734375 -1.6875 C 2.960938 -2.289062 3.078125 -3.394531 3.078125 -5 L 3.078125 -25.890625 C 3.078125 -26.804688 3.015625 -27.492188 2.890625 -27.953125 C 2.773438 -28.410156 2.601562 -28.742188 2.375 -28.953125 C 2.15625 -29.171875 1.863281 -29.359375 1.5 -29.515625 L 1.5 -29.953125 L 5.796875 -31.84375 L 6.140625 -31.5625 L 6.140625 -5 C 6.140625 -3.394531 6.25 -2.289062 6.46875 -1.6875 C 6.695312 -1.082031 7.113281 -0.691406 7.71875 -0.515625 L 7.71875 0 Z M 1.5 0 "/></g></g></g></g><g fill="#000000" fill-opacity="1"><g transform="translate(50.056648, 32.536251)"><g><path d="M 11.75 0.390625 C 10.488281 0.390625 9.242188 0.195312 8.015625 -0.1875 C 6.796875 -0.582031 5.6875 -1.1875 4.6875 -2 C 3.6875 -2.820312 2.890625 -3.863281 2.296875 -5.125 C 1.710938 -6.382812 1.421875 -7.867188 1.421875 -9.578125 C 1.421875 -11.628906 1.90625 -13.4375 2.875 -15 C 3.84375 -16.5625 5.113281 -17.78125 6.6875 -18.65625 C 8.269531 -19.539062 9.957031 -19.984375 11.75 -19.984375 C 12.976562 -19.984375 14.195312 -19.789062 15.40625 -19.40625 C 16.613281 -19.03125 17.71875 -18.429688 18.71875 -17.609375 C 19.71875 -16.796875 20.519531 -15.757812 21.125 -14.5 C 21.726562 -13.238281 22.03125 -11.726562 22.03125 -9.96875 C 22.03125 -8.289062 21.71875 -6.804688 21.09375 -5.515625 C 20.476562 -4.234375 19.660156 -3.148438 18.640625 -2.265625 C 17.617188 -1.390625 16.503906 -0.726562 15.296875 -0.28125 C 14.085938 0.164062 12.90625 0.390625 11.75 0.390625 Z M 4.453125 -11.828125 C 4.453125 -10.566406 4.648438 -9.269531 5.046875 -7.9375 C 5.441406 -6.613281 6.003906 -5.382812 6.734375 -4.25 C 7.472656 -3.125 8.359375 -2.207031 9.390625 -1.5 C 10.429688 -0.789062 11.609375 -0.4375 12.921875 -0.4375 C 14.335938 -0.4375 15.492188 -0.769531 16.390625 -1.4375 C 17.285156 -2.101562 17.945312 -2.988281 18.375 -4.09375 C 18.8125 -5.195312 19.03125 -6.378906 19.03125 -7.640625 C 19.03125 -8.898438 18.816406 -10.21875 18.390625 -11.59375 C 17.972656 -12.976562 17.378906 -14.257812 16.609375 -15.4375 C 15.835938 -16.625 14.910156 -17.570312 13.828125 -18.28125 C 12.753906 -18.988281 11.570312 -19.304688 10.28125 -19.234375 C 8.945312 -19.179688 7.84375 -18.8125 6.96875 -18.125 C 6.101562 -17.445312 5.46875 -16.554688 5.0625 -15.453125 C 4.65625 -14.347656 4.453125 -13.140625 4.453125 -11.828125 Z M 4.453125 -11.828125 "/></g></g></g><g fill="#000000" fill-opacity="1"><g transform="translate(73.77729, 32.536251)"><g><path d="M 7.015625 10.921875 C 6.015625 10.921875 5.019531 10.757812 4.03125 10.4375 C 3.050781 10.125 2.234375 9.613281 1.578125 8.90625 C 0.921875 8.195312 0.59375 7.25 0.59375 6.0625 C 0.59375 4.832031 1.054688 3.695312 1.984375 2.65625 C 2.921875 1.625 4.191406 0.617188 5.796875 -0.359375 C 4.898438 -0.566406 4.195312 -0.898438 3.6875 -1.359375 C 3.175781 -1.816406 2.921875 -2.46875 2.921875 -3.3125 C 2.921875 -4.039062 3.203125 -4.675781 3.765625 -5.21875 C 4.328125 -5.757812 5.003906 -6.28125 5.796875 -6.78125 C 4.816406 -7.300781 3.992188 -8.023438 3.328125 -8.953125 C 2.660156 -9.890625 2.328125 -11.082031 2.328125 -12.53125 C 2.328125 -13.925781 2.691406 -15.179688 3.421875 -16.296875 C 4.160156 -17.410156 5.128906 -18.300781 6.328125 -18.96875 C 7.523438 -19.644531 8.789062 -19.984375 10.125 -19.984375 C 10.601562 -19.984375 11.085938 -19.945312 11.578125 -19.875 C 12.078125 -19.8125 12.550781 -19.710938 13 -19.578125 C 13.207031 -19.847656 13.421875 -20.109375 13.640625 -20.359375 C 13.867188 -20.609375 14.117188 -20.820312 14.390625 -21 C 14.992188 -21.53125 15.65625 -21.957031 16.375 -22.28125 C 17.09375 -22.613281 17.925781 -22.78125 18.875 -22.78125 C 19.476562 -22.78125 19.96875 -22.691406 20.34375 -22.515625 C 20.726562 -22.347656 20.921875 -22.117188 20.921875 -21.828125 C 20.921875 -21.484375 20.722656 -21.0625 20.328125 -20.5625 C 19.941406 -20.070312 19.390625 -19.828125 18.671875 -19.828125 C 18.179688 -19.828125 17.628906 -19.910156 17.015625 -20.078125 C 16.410156 -20.242188 15.664062 -20.460938 14.78125 -20.734375 C 14.351562 -20.410156 13.929688 -19.960938 13.515625 -19.390625 C 14.722656 -18.960938 15.753906 -18.25 16.609375 -17.25 C 17.460938 -16.257812 17.890625 -14.910156 17.890625 -13.203125 C 17.890625 -12.066406 17.640625 -11.046875 17.140625 -10.140625 C 16.640625 -9.234375 15.992188 -8.453125 15.203125 -7.796875 C 14.421875 -7.140625 13.582031 -6.640625 12.6875 -6.296875 C 11.789062 -5.960938 10.9375 -5.796875 10.125 -5.796875 C 9.519531 -5.796875 8.882812 -5.851562 8.21875 -5.96875 C 7.550781 -6.082031 6.914062 -6.273438 6.3125 -6.546875 C 5.882812 -6.253906 5.539062 -5.984375 5.28125 -5.734375 C 5.019531 -5.484375 4.890625 -5.175781 4.890625 -4.8125 C 4.910156 -4.28125 5.257812 -3.859375 5.9375 -3.546875 C 6.625 -3.234375 7.71875 -3.035156 9.21875 -2.953125 L 14.1875 -2.640625 C 15.53125 -2.554688 16.664062 -2.410156 17.59375 -2.203125 C 18.53125 -1.992188 19.242188 -1.625 19.734375 -1.09375 C 20.234375 -0.570312 20.484375 0.195312 20.484375 1.21875 C 20.484375 2.351562 20.097656 3.488281 19.328125 4.625 C 18.554688 5.769531 17.507812 6.816406 16.1875 7.765625 C 14.875 8.710938 13.421875 9.472656 11.828125 10.046875 C 10.242188 10.628906 8.640625 10.921875 7.015625 10.921875 Z M 3.234375 4.609375 C 3.234375 6.023438 3.773438 7.132812 4.859375 7.9375 C 5.953125 8.738281 7.421875 9.140625 9.265625 9.140625 C 10.523438 9.140625 11.734375 8.960938 12.890625 8.609375 C 14.046875 8.253906 15.082031 7.773438 16 7.171875 C 16.914062 6.566406 17.632812 5.894531 18.15625 5.15625 C 18.6875 4.425781 18.953125 3.664062 18.953125 2.875 C 18.953125 1.957031 18.554688 1.320312 17.765625 0.96875 C 16.984375 0.613281 15.773438 0.382812 14.140625 0.28125 L 8.625 0 C 7.84375 -0.0507812 7.097656 -0.128906 6.390625 -0.234375 C 5.253906 0.523438 4.441406 1.3125 3.953125 2.125 C 3.472656 2.9375 3.234375 3.765625 3.234375 4.609375 Z M 5.203125 -14.265625 C 5.203125 -13.398438 5.328125 -12.515625 5.578125 -11.609375 C 5.828125 -10.703125 6.191406 -9.851562 6.671875 -9.0625 C 7.160156 -8.269531 7.757812 -7.628906 8.46875 -7.140625 C 9.175781 -6.660156 9.976562 -6.421875 10.875 -6.421875 C 12.34375 -6.421875 13.40625 -6.921875 14.0625 -7.921875 C 14.71875 -8.921875 15.046875 -10.085938 15.046875 -11.421875 C 15.046875 -12.316406 14.90625 -13.238281 14.625 -14.1875 C 14.351562 -15.132812 13.960938 -16.007812 13.453125 -16.8125 C 12.941406 -17.613281 12.320312 -18.253906 11.59375 -18.734375 C 10.875 -19.222656 10.070312 -19.441406 9.1875 -19.390625 C 7.789062 -19.335938 6.773438 -18.816406 6.140625 -17.828125 C 5.515625 -16.847656 5.203125 -15.660156 5.203125 -14.265625 Z M 5.203125 -14.265625 "/></g></g></g><g fill="#000000" fill-opacity="1"><g transform="translate(93.596948, 32.536251)"><g><path d="M 10.765625 0.390625 C 9.679688 0.390625 8.585938 0.195312 7.484375 -0.1875 C 6.378906 -0.582031 5.367188 -1.179688 4.453125 -1.984375 C 3.535156 -2.785156 2.800781 -3.789062 2.25 -5 C 1.695312 -6.207031 1.421875 -7.628906 1.421875 -9.265625 C 1.421875 -11.410156 1.898438 -13.285156 2.859375 -14.890625 C 3.816406 -16.492188 5.082031 -17.742188 6.65625 -18.640625 C 8.238281 -19.535156 9.945312 -19.984375 11.78125 -19.984375 C 13.4375 -19.984375 14.847656 -19.660156 16.015625 -19.015625 C 17.179688 -18.367188 18.085938 -17.519531 18.734375 -16.46875 C 19.378906 -15.414062 19.71875 -14.257812 19.75 -13 L 4.328125 -13 C 4.253906 -12.425781 4.21875 -11.820312 4.21875 -11.1875 C 4.21875 -9.40625 4.566406 -7.820312 5.265625 -6.4375 C 5.960938 -5.0625 6.945312 -3.992188 8.21875 -3.234375 C 9.488281 -2.472656 10.976562 -2.09375 12.6875 -2.09375 C 14.207031 -2.09375 15.53125 -2.40625 16.65625 -3.03125 C 17.789062 -3.664062 18.804688 -4.492188 19.703125 -5.515625 L 20.0625 -5.15625 C 19.40625 -4.238281 18.613281 -3.351562 17.6875 -2.5 C 16.769531 -1.644531 15.738281 -0.945312 14.59375 -0.40625 C 13.457031 0.125 12.179688 0.390625 10.765625 0.390625 Z M 4.453125 -13.515625 L 16.59375 -13.515625 C 16.457031 -14.410156 16.132812 -15.296875 15.625 -16.171875 C 15.113281 -17.054688 14.429688 -17.789062 13.578125 -18.375 C 12.722656 -18.96875 11.691406 -19.265625 10.484375 -19.265625 C 8.796875 -19.296875 7.445312 -18.757812 6.4375 -17.65625 C 5.425781 -16.550781 4.765625 -15.171875 4.453125 -13.515625 Z M 4.453125 -13.515625 "/></g></g></g><g fill="#000000" fill-opacity="1"><g transform="translate(114.756388, 32.536251)"><g><path d="M 1.265625 0 L 1.265625 -0.515625 C 1.867188 -0.691406 2.28125 -1.082031 2.5 -1.6875 C 2.726562 -2.289062 2.84375 -3.394531 2.84375 -5 L 2.84375 -14.0625 C 2.84375 -14.988281 2.78125 -15.679688 2.65625 -16.140625 C 2.539062 -16.597656 2.367188 -16.929688 2.140625 -17.140625 C 1.921875 -17.347656 1.628906 -17.53125 1.265625 -17.6875 L 1.265625 -18.125 L 5.5625 -20.015625 L 5.90625 -19.75 L 5.90625 -14.8125 C 6.226562 -15.570312 6.644531 -16.28125 7.15625 -16.9375 C 7.664062 -17.601562 8.207031 -18.144531 8.78125 -18.5625 C 9.382812 -19.007812 10.046875 -19.359375 10.765625 -19.609375 C 11.492188 -19.859375 12.332031 -19.984375 13.28125 -19.984375 C 14.070312 -19.984375 14.695312 -19.890625 15.15625 -19.703125 C 15.613281 -19.515625 15.84375 -19.253906 15.84375 -18.921875 C 15.84375 -18.492188 15.640625 -18.007812 15.234375 -17.46875 C 14.828125 -16.9375 14.269531 -16.671875 13.5625 -16.671875 C 13.03125 -16.671875 12.363281 -16.769531 11.5625 -16.96875 C 10.757812 -17.164062 9.78125 -17.429688 8.625 -17.765625 C 8.257812 -17.503906 7.875 -17.101562 7.46875 -16.5625 C 7.0625 -16.03125 6.71875 -15.4375 6.4375 -14.78125 C 6.164062 -14.125 6.003906 -13.476562 5.953125 -12.84375 L 5.90625 -12.84375 L 5.90625 -5 C 5.90625 -3.394531 6.015625 -2.289062 6.234375 -1.6875 C 6.460938 -1.082031 6.878906 -0.691406 7.484375 -0.515625 L 7.484375 0 Z M 1.265625 0 "/></g></g></g><g fill="#000000" fill-opacity="1"><g transform="translate(131.30567, 32.536251)"><g><path d="M 1.265625 0 L 1.265625 -0.515625 C 1.867188 -0.691406 2.28125 -1.082031 2.5 -1.6875 C 2.726562 -2.289062 2.84375 -3.394531 2.84375 -5 L 2.84375 -14.0625 C 2.84375 -14.988281 2.785156 -15.679688 2.671875 -16.140625 C 2.566406 -16.597656 2.394531 -16.929688 2.15625 -17.140625 C 1.925781 -17.347656 1.628906 -17.53125 1.265625 -17.6875 L 1.265625 -18.125 L 5.59375 -20.015625 L 5.90625 -19.75 L 5.90625 -5 C 5.90625 -3.394531 6.023438 -2.289062 6.265625 -1.6875 C 6.503906 -1.082031 6.910156 -0.691406 7.484375 -0.515625 L 7.484375 0 Z M 1.96875 -24.59375 C 1.96875 -25.21875 2.175781 -25.738281 2.59375 -26.15625 C 3.019531 -26.582031 3.535156 -26.796875 4.140625 -26.796875 C 4.765625 -26.796875 5.28125 -26.582031 5.6875 -26.15625 C 6.101562 -25.738281 6.3125 -25.21875 6.3125 -24.59375 C 6.3125 -24.007812 6.097656 -23.5 5.671875 -23.0625 C 5.253906 -22.632812 4.742188 -22.421875 4.140625 -22.421875 C 3.535156 -22.421875 3.019531 -22.632812 2.59375 -23.0625 C 2.175781 -23.5 1.96875 -24.007812 1.96875 -24.59375 Z M 1.96875 -24.59375 "/></g></g></g><g fill="#000000" fill-opacity="1"><g transform="translate(140.171348, 32.536251)"><g><path d="M 10.765625 0.390625 C 9.679688 0.390625 8.585938 0.195312 7.484375 -0.1875 C 6.378906 -0.582031 5.367188 -1.179688 4.453125 -1.984375 C 3.535156 -2.785156 2.800781 -3.789062 2.25 -5 C 1.695312 -6.207031 1.421875 -7.628906 1.421875 -9.265625 C 1.421875 -11.410156 1.898438 -13.285156 2.859375 -14.890625 C 3.816406 -16.492188 5.082031 -17.742188 6.65625 -18.640625 C 8.238281 -19.535156 9.945312 -19.984375 11.78125 -19.984375 C 13.4375 -19.984375 14.847656 -19.660156 16.015625 -19.015625 C 17.179688 -18.367188 18.085938 -17.519531 18.734375 -16.46875 C 19.378906 -15.414062 19.71875 -14.257812 19.75 -13 L 4.328125 -13 C 4.253906 -12.425781 4.21875 -11.820312 4.21875 -11.1875 C 4.21875 -9.40625 4.566406 -7.820312 5.265625 -6.4375 C 5.960938 -5.0625 6.945312 -3.992188 8.21875 -3.234375 C 9.488281 -2.472656 10.976562 -2.09375 12.6875 -2.09375 C 14.207031 -2.09375 15.53125 -2.40625 16.65625 -3.03125 C 17.789062 -3.664062 18.804688 -4.492188 19.703125 -5.515625 L 20.0625 -5.15625 C 19.40625 -4.238281 18.613281 -3.351562 17.6875 -2.5 C 16.769531 -1.644531 15.738281 -0.945312 14.59375 -0.40625 C 13.457031 0.125 12.179688 0.390625 10.765625 0.390625 Z M 4.453125 -13.515625 L 16.59375 -13.515625 C 16.457031 -14.410156 16.132812 -15.296875 15.625 -16.171875 C 15.113281 -17.054688 14.429688 -17.789062 13.578125 -18.375 C 12.722656 -18.96875 11.691406 -19.265625 10.484375 -19.265625 C 8.796875 -19.296875 7.445312 -18.757812 6.4375 -17.65625 C 5.425781 -16.550781 4.765625 -15.171875 4.453125 -13.515625 Z M 4.453125 -13.515625 "/></g></g></g></g></g><g transform="matrix(1, 0, 0, 1, 176, 342)"><g clip-path="url(#4a50c1dd27)"><g fill="#000000" fill-opacity="1"><g transform="translate(0.737946, 38.593795)"><g><path d="M 19.546875 0 C 18.609375 0 18.140625 -0.46875 18.140625 -1.40625 L 18.140625 -9.796875 C 17.671875 -7.898438 16.9375 -6.171875 15.9375 -4.609375 C 14.945312 -3.054688 13.789062 -1.820312 12.46875 -0.90625 C 11.15625 0.0078125 9.71875 0.46875 8.15625 0.46875 C 7.007812 0.46875 5.9375 0.234375 4.9375 -0.234375 C 3.945312 -0.703125 3.144531 -1.382812 2.53125 -2.28125 C 1.925781 -3.1875 1.625 -4.304688 1.625 -5.640625 C 1.625 -7.253906 2.109375 -8.570312 3.078125 -9.59375 C 4.046875 -10.625 5.328125 -11.46875 6.921875 -12.125 C 8.523438 -12.78125 10.242188 -13.359375 12.078125 -13.859375 L 18.140625 -15.484375 C 18.015625 -17.753906 17.390625 -19.425781 16.265625 -20.5 C 15.148438 -21.570312 13.597656 -22.109375 11.609375 -22.109375 C 10.210938 -22.109375 8.851562 -21.773438 7.53125 -21.109375 C 6.207031 -20.441406 4.957031 -19.390625 3.78125 -17.953125 L 3.359375 -18.328125 C 4.691406 -19.972656 6.207031 -21.269531 7.90625 -22.21875 C 9.601562 -23.164062 11.460938 -23.640625 13.484375 -23.640625 C 16.304688 -23.640625 18.382812 -22.898438 19.71875 -21.421875 C 21.0625 -19.953125 21.734375 -17.894531 21.734375 -15.25 L 21.734375 -5.921875 C 21.734375 -4.023438 21.863281 -2.71875 22.125 -2 C 22.394531 -1.289062 22.882812 -0.828125 23.59375 -0.609375 L 23.59375 0 Z M 5.125 -6.953125 C 5.125 -5.429688 5.582031 -4.269531 6.5 -3.46875 C 7.414062 -2.675781 8.546875 -2.28125 9.890625 -2.28125 C 11.128906 -2.28125 12.253906 -2.628906 13.265625 -3.328125 C 14.273438 -4.035156 15.140625 -4.945312 15.859375 -6.0625 C 16.578125 -7.1875 17.132812 -8.398438 17.53125 -9.703125 C 17.9375 -11.003906 18.140625 -12.265625 18.140625 -13.484375 L 18.140625 -14.875 L 12.265625 -13.296875 C 11.117188 -12.984375 9.992188 -12.566406 8.890625 -12.046875 C 7.785156 -11.535156 6.878906 -10.875 6.171875 -10.0625 C 5.472656 -9.257812 5.125 -8.222656 5.125 -6.953125 Z M 5.125 -6.953125 "/></g></g></g><g fill="#000000" fill-opacity="1"><g transform="translate(25.456215, 38.593795)"><g><path d="M 1.5 0 L 1.5 -0.609375 C 2.207031 -0.828125 2.691406 -1.289062 2.953125 -2 C 3.222656 -2.71875 3.359375 -4.023438 3.359375 -5.921875 L 3.359375 -16.65625 C 3.359375 -17.738281 3.285156 -18.550781 3.140625 -19.09375 C 3.003906 -19.644531 2.800781 -20.039062 2.53125 -20.28125 C 2.269531 -20.53125 1.925781 -20.75 1.5 -20.9375 L 1.5 -21.453125 L 6.578125 -23.6875 L 7 -23.359375 L 7 -17.53125 C 7.375 -18.4375 7.863281 -19.273438 8.46875 -20.046875 C 9.070312 -20.828125 9.71875 -21.46875 10.40625 -21.96875 C 11.113281 -22.5 11.894531 -22.910156 12.75 -23.203125 C 13.601562 -23.492188 14.59375 -23.640625 15.71875 -23.640625 C 16.644531 -23.640625 17.378906 -23.53125 17.921875 -23.3125 C 18.472656 -23.101562 18.75 -22.796875 18.75 -22.390625 C 18.75 -21.890625 18.503906 -21.320312 18.015625 -20.6875 C 17.535156 -20.050781 16.878906 -19.734375 16.046875 -19.734375 C 15.421875 -19.734375 14.632812 -19.847656 13.6875 -20.078125 C 12.738281 -20.304688 11.582031 -20.625 10.21875 -21.03125 C 9.78125 -20.71875 9.316406 -20.242188 8.828125 -19.609375 C 8.347656 -18.972656 7.945312 -18.265625 7.625 -17.484375 C 7.300781 -16.710938 7.109375 -15.953125 7.046875 -15.203125 L 7 -15.203125 L 7 -5.921875 C 7 -4.023438 7.128906 -2.71875 7.390625 -2 C 7.648438 -1.289062 8.140625 -0.828125 8.859375 -0.609375 L 8.859375 0 Z M 1.5 0 "/></g></g></g><g fill="#000000" fill-opacity="1"><g transform="translate(42.152433, 38.593795)"><g><path d="M 19.546875 0 C 18.609375 0 18.140625 -0.46875 18.140625 -1.40625 L 18.140625 -9.796875 C 17.671875 -7.898438 16.9375 -6.171875 15.9375 -4.609375 C 14.945312 -3.054688 13.789062 -1.820312 12.46875 -0.90625 C 11.15625 0.0078125 9.71875 0.46875 8.15625 0.46875 C 7.007812 0.46875 5.9375 0.234375 4.9375 -0.234375 C 3.945312 -0.703125 3.144531 -1.382812 2.53125 -2.28125 C 1.925781 -3.1875 1.625 -4.304688 1.625 -5.640625 C 1.625 -7.253906 2.109375 -8.570312 3.078125 -9.59375 C 4.046875 -10.625 5.328125 -11.46875 6.921875 -12.125 C 8.523438 -12.78125 10.242188 -13.359375 12.078125 -13.859375 L 18.140625 -15.484375 C 18.015625 -17.753906 17.390625 -19.425781 16.265625 -20.5 C 15.148438 -21.570312 13.597656 -22.109375 11.609375 -22.109375 C 10.210938 -22.109375 8.851562 -21.773438 7.53125 -21.109375 C 6.207031 -20.441406 4.957031 -19.390625 3.78125 -17.953125 L 3.359375 -18.328125 C 4.691406 -19.972656 6.207031 -21.269531 7.90625 -22.21875 C 9.601562 -23.164062 11.460938 -23.640625 13.484375 -23.640625 C 16.304688 -23.640625 18.382812 -22.898438 19.71875 -21.421875 C 21.0625 -19.953125 21.734375 -17.894531 21.734375 -15.25 L 21.734375 -5.921875 C 21.734375 -4.023438 21.863281 -2.71875 22.125 -2 C 22.394531 -1.289062 22.882812 -0.828125 23.59375 -0.609375 L 23.59375 0 Z M 5.125 -6.953125 C 5.125 -5.429688 5.582031 -4.269531 6.5 -3.46875 C 7.414062 -2.675781 8.546875 -2.28125 9.890625 -2.28125 C 11.128906 -2.28125 12.253906 -2.628906 13.265625 -3.328125 C 14.273438 -4.035156 15.140625 -4.945312 15.859375 -6.0625 C 16.578125 -7.1875 17.132812 -8.398438 17.53125 -9.703125 C 17.9375 -11.003906 18.140625 -12.265625 18.140625 -13.484375 L 18.140625 -14.875 L 12.265625 -13.296875 C 11.117188 -12.984375 9.992188 -12.566406 8.890625 -12.046875 C 7.785156 -11.535156 6.878906 -10.875 6.171875 -10.0625 C 5.472656 -9.257812 5.125 -8.222656 5.125 -6.953125 Z M 5.125 -6.953125 "/></g></g></g><g fill="#000000" fill-opacity="1"><g transform="translate(66.870702, 38.593795)"><g><path d="M 8.8125 0.46875 C 7.351562 0.46875 6.203125 -0.0351562 5.359375 -1.046875 C 4.523438 -2.054688 4.109375 -3.773438 4.109375 -6.203125 L 4.109375 -22.671875 L 1.125 -22.671875 L 1.125 -23.328125 L 7.09375 -29.0625 L 7.75 -29.0625 L 7.75 -23.328125 L 14.828125 -23.328125 L 14.59375 -22.671875 L 7.75 -22.671875 L 7.75 -6.203125 C 7.75 -4.617188 8.050781 -3.488281 8.65625 -2.8125 C 9.257812 -2.144531 10.054688 -1.8125 11.046875 -1.8125 C 11.703125 -1.8125 12.414062 -1.988281 13.1875 -2.34375 C 13.96875 -2.707031 14.75 -3.34375 15.53125 -4.25 L 15.953125 -3.828125 C 14.953125 -2.671875 13.851562 -1.664062 12.65625 -0.8125 C 11.46875 0.0390625 10.1875 0.46875 8.8125 0.46875 Z M 8.8125 0.46875 "/></g></g></g><g fill="#000000" fill-opacity="1"><g transform="translate(82.91427, 38.593795)"><g><path d="M 1.40625 9 C 0.5 9.03125 -0.253906 8.910156 -0.859375 8.640625 C -1.460938 8.378906 -1.765625 8.066406 -1.765625 7.703125 C -1.765625 7.390625 -1.640625 7.035156 -1.390625 6.640625 C -1.148438 6.253906 -0.8125 5.90625 -0.375 5.59375 C 0.0625 5.28125 0.5625 5.125 1.125 5.125 C 1.738281 5.125 2.601562 5.253906 3.71875 5.515625 C 4.84375 5.785156 5.9375 6.015625 7 6.203125 C 7.800781 5.484375 8.5625 4.585938 9.28125 3.515625 C 10 2.441406 10.648438 1.300781 11.234375 0.09375 L 3.59375 -17.859375 C 2.875 -19.597656 2.21875 -20.785156 1.625 -21.421875 C 1.039062 -22.066406 0.5 -22.5 0 -22.71875 L 0 -23.328125 L 7.046875 -23.328125 L 7.046875 -22.71875 C 6.359375 -22.5 6.078125 -22.066406 6.203125 -21.421875 C 6.328125 -20.785156 6.765625 -19.597656 7.515625 -17.859375 L 13.25 -4.53125 L 18.984375 -17.859375 C 19.640625 -19.390625 19.9375 -20.539062 19.875 -21.3125 C 19.8125 -22.09375 19.375 -22.5625 18.5625 -22.71875 L 18.5625 -23.328125 L 23.734375 -23.328125 L 23.734375 -22.71875 C 23.085938 -22.5 22.441406 -22.066406 21.796875 -21.421875 C 21.160156 -20.785156 20.457031 -19.597656 19.6875 -17.859375 L 12.453125 -1.171875 C 11.453125 1.097656 10.453125 2.914062 9.453125 4.28125 C 8.460938 5.65625 7.492188 6.675781 6.546875 7.34375 C 5.597656 8.007812 4.6875 8.453125 3.8125 8.671875 C 2.945312 8.890625 2.144531 9 1.40625 9 Z M 1.40625 9 "/></g></g></g><g clip-path="url(#addfb8f2ac)"><g fill="#000000" fill-opacity="1"><g transform="translate(106.419957, 38.593795)"><g><path d="M 1.71875 0 L 1.71875 -0.609375 C 2.4375 -0.828125 2.925781 -1.289062 3.1875 -2 C 3.457031 -2.71875 3.59375 -4.023438 3.59375 -5.921875 L 3.59375 -30.640625 C 3.59375 -31.734375 3.519531 -32.550781 3.375 -33.09375 C 3.238281 -33.632812 3.035156 -34.03125 2.765625 -34.28125 C 2.503906 -34.53125 2.15625 -34.75 1.71875 -34.9375 L 1.71875 -35.453125 L 6.8125 -37.6875 L 7.234375 -37.359375 L 7.234375 -10.125 L 15.34375 -17.90625 C 16.863281 -19.40625 17.765625 -20.570312 18.046875 -21.40625 C 18.328125 -22.25 18.203125 -22.78125 17.671875 -23 L 17.671875 -23.328125 L 23.1875 -23.328125 L 23.1875 -22.71875 C 22.5 -22.5 21.71875 -22.1875 20.84375 -21.78125 C 19.976562 -21.375 18.859375 -20.519531 17.484375 -19.21875 L 14.125 -15.953125 L 19.59375 -6.109375 C 20.488281 -4.492188 21.335938 -3.179688 22.140625 -2.171875 C 22.953125 -1.160156 23.890625 -0.625 24.953125 -0.5625 L 24.953125 0 L 21.921875 0 C 20.773438 0 19.753906 -0.410156 18.859375 -1.234375 C 17.972656 -2.054688 16.957031 -3.507812 15.8125 -5.59375 L 11.5625 -13.484375 L 7.234375 -9.28125 L 7.234375 -5.921875 C 7.234375 -4.023438 7.363281 -2.71875 7.625 -2 C 7.882812 -1.289062 8.375 -0.828125 9.09375 -0.609375 L 9.09375 0 Z M 1.71875 0 "/></g></g></g></g></g></g><g transform="matrix(1, 0, 0, 1, 60, 230)"><g clip-path="url(#2409e4870b)"><g fill="#000000" fill-opacity="1"><g transform="translate(0.624272, 154.956791)"><g><path d="M 107.578125 0 L 92.515625 0 L 92.515625 -55.703125 L 31.28125 -55.703125 L 31.28125 0 L 16.234375 0 L 16.234375 -119.453125 L 31.28125 -119.453125 L 31.28125 -68.921875 L 92.515625 -68.921875 L 92.515625 -119.453125 L 107.578125 -119.453125 Z M 107.578125 0 "/></g></g></g></g></g><g transform="matrix(1, 0, 0, 1, 296, 143)"><g clip-path="url(#83748803f0)"><g fill="#000000" fill-opacity="1"><g transform="translate(0.857413, 152.496207)"><g><path d="M 106.578125 0 L 91.65625 0 L 91.65625 -55.1875 L 31 -55.1875 L 31 0 L 16.078125 0 L 16.078125 -118.34375 L 31 -118.34375 L 31 -68.28125 L 91.65625 -68.28125 L 91.65625 -118.34375 L 106.578125 -118.34375 Z M 106.578125 0 "/></g></g></g></g></g></g></g></svg>